# xmcd
#
# Track frame offsets:
# 150
# 24511
# 41214
# 59911
# 79205
# 102239
# 121494
# 137252
# 157481
# 179068
#
# Disc length: 2623 seconds
#
# Revision: 11
# Processed by: cddbd v1.5.2PL0 Copyright (c) Steve Scherf et al.
# Submitted via: Axialis_AX_CDPlayer 2.6
#
DISCID=950a3d0a
DTITLE=Bon Jovi - Slippery When Wet
DYEAR=1900
DGENRE=
TTITLE0=Let It Rock
TTITLE1=You Give Love A Bad Name
TTITLE2=Livin' On A Prayer
TTITLE3=Social Disease
TTITLE4=Wanted Dead Or Alive
TTITLE5=Raise Your Hands
TTITLE6=Without Love
TTITLE7=I'd Die For You
TTITLE8=Never Say Goodbye
TTITLE9=Wild In The Streets
EXTD=Track 11 Enhanced CD video   Wanted Dead Or Alive
EXTT0=
EXTT1=
EXTT2=
EXTT3=
EXTT4=
EXTT5=
EXTT6=
EXTT7=
EXTT8=
EXTT9=
PLAYORDER=
